<?xml version="1.0" encoding="UTF-8"?>
<svg id="_レイヤー_2" data-name="レイヤー_2" xmlns="http://www.w3.org/2000/svg" viewBox="0 0 1308.46 869.96">
  <defs>
    <style>
      .cls-1 {
        stroke: #666;
      }

      .cls-1, .cls-2 {
        fill: none;
        stroke-miterlimit: 10;
      }

      .cls-2 {
        stroke: #b3b3b3;
      }
    </style>
  </defs>
  <g id="_レイヤー_1-2" data-name="レイヤー_1">
    <g id="bg-grid">
      <g id="grid">
        <polyline class="cls-2" points="1158.47 864 1158.47 720 1158.47 576 1158.47 432 1158.47 288 1158.47 144 1158.47 0"/>
        <polyline class="cls-2" points="1302.47 864 1302.47 720 1302.47 576 1302.47 432 1302.47 288 1302.47 144 1302.47 0"/>
        <polyline class="cls-2" points="1308.46 144 1302.47 144 1302.46 144 1296.46 144 1164.46 144 1158.47 144 1158.46 144 1152.46 144 1020.46 144 1014.47 144 1014.46 144 1008.46 144 876.46 144 870.47 144 870.46 144 864.46 144 732.47 144 726.47 144 720.47 144 588.47 144 582.47 144 576.47 144 444.47 144 438.47 144 432.47 144 300.47 144 294.47 144 288.47 144 156.47 144 150.47 144 144.47 144 6.47 144"/>
        <polyline class="cls-2" points="1308.46 288 1302.47 288 1302.46 288 1296.46 288 1164.46 288 1158.47 288 1158.46 288 1152.46 288 1020.46 288 1014.47 288 1014.46 288 1008.46 288 876.46 288 870.47 288 870.46 288 864.46 288 732.47 288 726.47 288 720.47 288 588.47 288 582.47 288 576.47 288 444.47 288 438.47 288 432.47 288 300.47 288 294.47 288 288.47 288 156.47 288 150.47 288 144.47 288 6.47 288"/>
        <polyline class="cls-2" points="1308.46 432 1302.47 432 1302.46 432 1296.46 432 1164.46 432 1158.47 432 1158.46 432 1152.46 432 1020.46 432 1014.47 432 1014.46 432 1008.46 432 876.46 432 870.47 432 870.46 432 864.46 432 732.47 432 726.47 432 720.47 432 588.47 432 582.47 432 576.47 432 444.47 432 438.47 432 432.47 432 300.47 432 294.47 432 288.47 432 156.47 432 150.47 432 144.47 432 6.47 432"/>
        <polyline class="cls-2" points="1308.46 576 1302.47 576 1302.46 576 1296.46 576 1164.46 576 1158.47 576 1158.46 576 1152.46 576 1020.46 576 1014.47 576 1014.46 576 1008.46 576 876.46 576 870.47 576 870.46 576 864.46 576 732.47 576 726.47 576 720.47 576 588.47 576 582.47 576 576.47 576 444.47 576 438.47 576 432.47 576 300.47 576 294.47 576 288.47 576 156.47 576 150.47 576 144.47 576 6.47 576"/>
        <polyline class="cls-2" points="1308.46 720 1302.47 720 1302.46 720 1296.46 720 1164.46 720 1158.47 720 1158.46 720 1152.46 720 1020.46 720 1014.47 720 1014.46 720 1008.46 720 876.46 720 870.47 720 870.46 720 864.46 720 732.47 720 726.47 720 720.47 720 588.47 720 582.47 720 576.47 720 444.47 720 438.47 720 432.47 720 300.47 720 294.47 720 288.47 720 156.47 720 150.47 720 144.47 720 0 720"/>
        <polyline class="cls-2" points="1308.46 864 1302.47 864 1302.46 864 1296.46 864 1164.46 864 1158.47 864 1158.46 864 1152.46 864 1020.46 864 1014.47 864 1014.46 864 1008.46 864 876.46 864 870.47 864 870.46 864 864.46 864 732.47 864 726.47 864 720.47 864 588.47 864 582.47 864 576.47 864 444.47 864 438.47 864 432.47 864 300.47 864 294.47 864 288.47 864 156.47 864 150.47 864 144.47 864 0 864"/>
        <polyline class="cls-2" points="150.47 869.96 150.47 864 150.47 858.04 150.47 725.96 150.47 720 150.47 714.04 150.47 581.96 150.47 576 150.47 570.04 150.47 437.96 150.47 432 150.47 426.04 150.47 293.96 150.47 288 150.47 282.04 150.47 149.96 150.47 144 150.47 138.04 150.47 0"/>
        <polyline class="cls-2" points="294.47 869.96 294.47 864 294.47 858.04 294.47 725.96 294.47 720 294.47 714.04 294.47 581.96 294.47 576 294.47 570.04 294.47 437.96 294.47 432 294.47 426.04 294.47 293.96 294.47 288 294.47 282.04 294.47 149.96 294.47 144 294.47 138.04 294.47 0"/>
        <polyline class="cls-2" points="438.47 869.96 438.47 864 438.47 858.04 438.47 725.96 438.47 720 438.47 714.04 438.47 581.96 438.47 576 438.47 570.04 438.47 437.96 438.47 432 438.47 426.04 438.47 293.96 438.47 288 438.47 282.04 438.47 149.96 438.47 144 438.47 138.04 438.47 0"/>
        <polyline class="cls-2" points="582.47 869.96 582.47 864 582.47 858.04 582.47 725.96 582.47 720 582.47 714.04 582.47 581.96 582.47 576 582.47 570.04 582.47 437.96 582.47 432 582.47 426.04 582.47 293.96 582.47 288 582.47 282.04 582.47 149.96 582.47 144 582.47 138.04 582.47 0"/>
        <polyline class="cls-2" points="726.47 869.96 726.47 864 726.47 858.04 726.47 725.96 726.47 720 726.47 714.04 726.47 581.96 726.47 576 726.47 570.04 726.47 437.96 726.47 432 726.47 426.04 726.47 293.96 726.47 288 726.47 282.04 726.47 149.96 726.47 144 726.47 138.04 726.47 0"/>
        <polyline class="cls-2" points="870.47 864 870.47 720 870.47 576 870.47 432 870.47 288 870.47 144 870.47 0"/>
        <polyline class="cls-2" points="1014.47 864 1014.47 720 1014.47 576 1014.47 432 1014.47 288 1014.47 144 1014.47 0"/>
      </g>
      <g id="corners">
        <g id="corner">
          <line class="cls-1" x1="288.47" y1="144" x2="300.47" y2="144"/>
          <line class="cls-1" x1="294.47" y1="138.04" x2="294.47" y2="149.96"/>
        </g>
        <g id="corner-2" data-name="corner">
          <line class="cls-1" x1="432.47" y1="144" x2="444.47" y2="144"/>
          <line class="cls-1" x1="438.47" y1="138.04" x2="438.47" y2="149.96"/>
        </g>
        <g id="corner-3" data-name="corner">
          <line class="cls-1" x1="576.47" y1="144" x2="588.47" y2="144"/>
          <line class="cls-1" x1="582.47" y1="138.04" x2="582.47" y2="149.96"/>
        </g>
        <g id="corner-4" data-name="corner">
          <line class="cls-1" x1="720.47" y1="144" x2="732.47" y2="144"/>
          <line class="cls-1" x1="726.47" y1="138.04" x2="726.47" y2="149.96"/>
        </g>
        <g id="corner-5" data-name="corner">
          <line class="cls-1" x1="864.46" y1="144" x2="876.46" y2="144"/>
          <line class="cls-1" x1="870.46" y1="138.04" x2="870.46" y2="149.96"/>
        </g>
        <g id="corner-6" data-name="corner">
          <line class="cls-1" x1="1008.46" y1="144" x2="1020.46" y2="144"/>
          <line class="cls-1" x1="1014.46" y1="138.04" x2="1014.46" y2="149.96"/>
        </g>
        <g id="corner-7" data-name="corner">
          <line class="cls-1" x1="1152.46" y1="144" x2="1164.46" y2="144"/>
          <line class="cls-1" x1="1158.46" y1="138.04" x2="1158.46" y2="149.96"/>
        </g>
        <g id="corner-8" data-name="corner">
          <line class="cls-1" x1="1296.46" y1="144" x2="1308.46" y2="144"/>
          <line class="cls-1" x1="1302.46" y1="138.04" x2="1302.46" y2="149.96"/>
        </g>
        <g id="corner-9" data-name="corner">
          <line class="cls-1" x1="288.47" y1="288" x2="300.47" y2="288"/>
          <line class="cls-1" x1="294.47" y1="282.04" x2="294.47" y2="293.96"/>
        </g>
        <g id="corner-10" data-name="corner">
          <line class="cls-1" x1="432.47" y1="288" x2="444.47" y2="288"/>
          <line class="cls-1" x1="438.47" y1="282.04" x2="438.47" y2="293.96"/>
        </g>
        <g id="corner-11" data-name="corner">
          <line class="cls-1" x1="576.47" y1="288" x2="588.47" y2="288"/>
          <line class="cls-1" x1="582.47" y1="282.04" x2="582.47" y2="293.96"/>
        </g>
        <g id="corner-12" data-name="corner">
          <line class="cls-1" x1="720.47" y1="288" x2="732.47" y2="288"/>
          <line class="cls-1" x1="726.47" y1="282.04" x2="726.47" y2="293.96"/>
        </g>
        <g id="corner-13" data-name="corner">
          <line class="cls-1" x1="864.46" y1="288" x2="876.46" y2="288"/>
          <line class="cls-1" x1="870.46" y1="282.04" x2="870.46" y2="293.96"/>
        </g>
        <g id="corner-14" data-name="corner">
          <line class="cls-1" x1="1008.46" y1="288" x2="1020.46" y2="288"/>
          <line class="cls-1" x1="1014.46" y1="282.04" x2="1014.46" y2="293.96"/>
        </g>
        <g id="corner-15" data-name="corner">
          <line class="cls-1" x1="1152.46" y1="288" x2="1164.46" y2="288"/>
          <line class="cls-1" x1="1158.46" y1="282.04" x2="1158.46" y2="293.96"/>
        </g>
        <g id="corner-16" data-name="corner">
          <line class="cls-1" x1="1296.46" y1="288" x2="1308.46" y2="288"/>
          <line class="cls-1" x1="1302.46" y1="282.04" x2="1302.46" y2="293.96"/>
        </g>
        <g id="corner-17" data-name="corner">
          <line class="cls-1" x1="288.47" y1="432" x2="300.47" y2="432"/>
          <line class="cls-1" x1="294.47" y1="426.04" x2="294.47" y2="437.96"/>
        </g>
        <g id="corner-18" data-name="corner">
          <line class="cls-1" x1="432.47" y1="432" x2="444.47" y2="432"/>
          <line class="cls-1" x1="438.47" y1="426.04" x2="438.47" y2="437.96"/>
        </g>
        <g id="corner-19" data-name="corner">
          <line class="cls-1" x1="576.47" y1="432" x2="588.47" y2="432"/>
          <line class="cls-1" x1="582.47" y1="426.04" x2="582.47" y2="437.96"/>
        </g>
        <g id="corner-20" data-name="corner">
          <line class="cls-1" x1="720.47" y1="432" x2="732.47" y2="432"/>
          <line class="cls-1" x1="726.47" y1="426.04" x2="726.47" y2="437.96"/>
        </g>
        <g id="corner-21" data-name="corner">
          <line class="cls-1" x1="864.46" y1="432" x2="876.46" y2="432"/>
          <line class="cls-1" x1="870.46" y1="426.04" x2="870.46" y2="437.96"/>
        </g>
        <g id="corner-22" data-name="corner">
          <line class="cls-1" x1="1008.46" y1="432" x2="1020.46" y2="432"/>
          <line class="cls-1" x1="1014.46" y1="426.04" x2="1014.46" y2="437.96"/>
        </g>
        <g id="corner-23" data-name="corner">
          <line class="cls-1" x1="1152.46" y1="432" x2="1164.46" y2="432"/>
          <line class="cls-1" x1="1158.46" y1="426.04" x2="1158.46" y2="437.96"/>
        </g>
        <g id="corner-24" data-name="corner">
          <line class="cls-1" x1="1296.46" y1="432" x2="1308.46" y2="432"/>
          <line class="cls-1" x1="1302.46" y1="426.04" x2="1302.46" y2="437.96"/>
        </g>
        <g id="corner-25" data-name="corner">
          <line class="cls-1" x1="288.47" y1="576" x2="300.47" y2="576"/>
          <line class="cls-1" x1="294.47" y1="570.04" x2="294.47" y2="581.96"/>
        </g>
        <g id="corner-26" data-name="corner">
          <line class="cls-1" x1="432.47" y1="576" x2="444.47" y2="576"/>
          <line class="cls-1" x1="438.47" y1="570.04" x2="438.47" y2="581.96"/>
        </g>
        <g id="corner-27" data-name="corner">
          <line class="cls-1" x1="576.47" y1="576" x2="588.47" y2="576"/>
          <line class="cls-1" x1="582.47" y1="570.04" x2="582.47" y2="581.96"/>
        </g>
        <g id="corner-28" data-name="corner">
          <line class="cls-1" x1="720.47" y1="576" x2="732.47" y2="576"/>
          <line class="cls-1" x1="726.47" y1="570.04" x2="726.47" y2="581.96"/>
        </g>
        <g id="corner-29" data-name="corner">
          <line class="cls-1" x1="864.46" y1="576" x2="876.46" y2="576"/>
          <line class="cls-1" x1="870.46" y1="570.04" x2="870.46" y2="581.96"/>
        </g>
        <g id="corner-30" data-name="corner">
          <line class="cls-1" x1="1008.46" y1="576" x2="1020.46" y2="576"/>
          <line class="cls-1" x1="1014.46" y1="570.04" x2="1014.46" y2="581.96"/>
        </g>
        <g id="corner-31" data-name="corner">
          <line class="cls-1" x1="1152.46" y1="576" x2="1164.46" y2="576"/>
          <line class="cls-1" x1="1158.46" y1="570.04" x2="1158.46" y2="581.96"/>
        </g>
        <g id="corner-32" data-name="corner">
          <line class="cls-1" x1="1296.46" y1="576" x2="1308.46" y2="576"/>
          <line class="cls-1" x1="1302.46" y1="570.04" x2="1302.46" y2="581.96"/>
        </g>
        <g id="corner-33" data-name="corner">
          <line class="cls-1" x1="288.47" y1="720" x2="300.47" y2="720"/>
          <line class="cls-1" x1="294.47" y1="714.04" x2="294.47" y2="725.96"/>
        </g>
        <g id="corner-34" data-name="corner">
          <line class="cls-1" x1="432.47" y1="720" x2="444.47" y2="720"/>
          <line class="cls-1" x1="438.47" y1="714.04" x2="438.47" y2="725.96"/>
        </g>
        <g id="corner-35" data-name="corner">
          <line class="cls-1" x1="576.47" y1="720" x2="588.47" y2="720"/>
          <line class="cls-1" x1="582.47" y1="714.04" x2="582.47" y2="725.96"/>
        </g>
        <g id="corner-36" data-name="corner">
          <line class="cls-1" x1="720.47" y1="720" x2="732.47" y2="720"/>
          <line class="cls-1" x1="726.47" y1="714.04" x2="726.47" y2="725.96"/>
        </g>
        <g id="corner-37" data-name="corner">
          <line class="cls-1" x1="864.46" y1="720" x2="876.46" y2="720"/>
          <line class="cls-1" x1="870.46" y1="714.04" x2="870.46" y2="725.96"/>
        </g>
        <g id="corner-38" data-name="corner">
          <line class="cls-1" x1="1008.46" y1="720" x2="1020.46" y2="720"/>
          <line class="cls-1" x1="1014.46" y1="714.04" x2="1014.46" y2="725.96"/>
        </g>
        <g id="corner-39" data-name="corner">
          <line class="cls-1" x1="1152.46" y1="720" x2="1164.46" y2="720"/>
          <line class="cls-1" x1="1158.46" y1="714.04" x2="1158.46" y2="725.96"/>
        </g>
        <g id="corner-40" data-name="corner">
          <line class="cls-1" x1="1296.46" y1="720" x2="1308.46" y2="720"/>
          <line class="cls-1" x1="1302.46" y1="714.04" x2="1302.46" y2="725.96"/>
        </g>
        <g id="corner-41" data-name="corner">
          <line class="cls-1" x1="288.47" y1="864" x2="300.47" y2="864"/>
          <line class="cls-1" x1="294.47" y1="858.04" x2="294.47" y2="869.96"/>
        </g>
        <g id="corner-42" data-name="corner">
          <line class="cls-1" x1="432.47" y1="864" x2="444.47" y2="864"/>
          <line class="cls-1" x1="438.47" y1="858.04" x2="438.47" y2="869.96"/>
        </g>
        <g id="corner-43" data-name="corner">
          <line class="cls-1" x1="576.47" y1="864" x2="588.47" y2="864"/>
          <line class="cls-1" x1="582.47" y1="858.04" x2="582.47" y2="869.96"/>
        </g>
        <g id="corner-44" data-name="corner">
          <line class="cls-1" x1="720.47" y1="864" x2="732.47" y2="864"/>
          <line class="cls-1" x1="726.47" y1="858.04" x2="726.47" y2="869.96"/>
        </g>
        <g id="corner-45" data-name="corner">
          <line class="cls-1" x1="864.46" y1="864" x2="876.46" y2="864"/>
          <line class="cls-1" x1="870.46" y1="858.04" x2="870.46" y2="869.96"/>
        </g>
        <g id="corner-46" data-name="corner">
          <line class="cls-1" x1="1008.46" y1="864" x2="1020.46" y2="864"/>
          <line class="cls-1" x1="1014.46" y1="858.04" x2="1014.46" y2="869.96"/>
        </g>
        <g id="corner-47" data-name="corner">
          <line class="cls-1" x1="1152.46" y1="864" x2="1164.46" y2="864"/>
          <line class="cls-1" x1="1158.46" y1="858.04" x2="1158.46" y2="869.96"/>
        </g>
        <g id="corner-48" data-name="corner">
          <line class="cls-1" x1="1296.46" y1="864" x2="1308.46" y2="864"/>
          <line class="cls-1" x1="1302.46" y1="858.04" x2="1302.46" y2="869.96"/>
        </g>
        <g id="corner-49" data-name="corner">
          <line class="cls-1" x1="144.47" y1="144" x2="156.47" y2="144"/>
          <line class="cls-1" x1="150.47" y1="138.04" x2="150.47" y2="149.96"/>
        </g>
        <g id="corner-50" data-name="corner">
          <line class="cls-1" x1="144.47" y1="288" x2="156.47" y2="288"/>
          <line class="cls-1" x1="150.47" y1="282.04" x2="150.47" y2="293.96"/>
        </g>
        <g id="corner-51" data-name="corner">
          <line class="cls-1" x1="144.47" y1="432" x2="156.47" y2="432"/>
          <line class="cls-1" x1="150.47" y1="426.04" x2="150.47" y2="437.96"/>
        </g>
        <g id="corner-52" data-name="corner">
          <line class="cls-1" x1="144.47" y1="576" x2="156.47" y2="576"/>
          <line class="cls-1" x1="150.47" y1="570.04" x2="150.47" y2="581.96"/>
        </g>
        <g id="corner-53" data-name="corner">
          <line class="cls-1" x1="144.47" y1="720" x2="156.47" y2="720"/>
          <line class="cls-1" x1="150.47" y1="714.04" x2="150.47" y2="725.96"/>
        </g>
        <g id="corner-54" data-name="corner">
          <line class="cls-1" x1="144.47" y1="864" x2="156.47" y2="864"/>
          <line class="cls-1" x1="150.47" y1="858.04" x2="150.47" y2="869.96"/>
        </g>
      </g>
    </g>
  </g>
</svg>