<svg width="30" height="597" viewBox="0 0 30 597" fill="none" xmlns="http://www.w3.org/2000/svg">
<path d="M30 0.654663L7.15256e-07 0.654663" stroke="#A2A2A2" stroke-miterlimit="10"/>
<path d="M20 20.511H4.76837e-07" stroke="#A2A2A2" stroke-miterlimit="10"/>
<path d="M20 40.3673H4.76837e-07" stroke="#A2A2A2" stroke-miterlimit="10"/>
<path d="M20 60.2238H4.76837e-07" stroke="#A2A2A2" stroke-miterlimit="10"/>
<path d="M20 80.0801H4.76837e-07" stroke="#A2A2A2" stroke-miterlimit="10"/>
<path d="M30 99.9364H7.15256e-07" stroke="#A2A2A2" stroke-miterlimit="10"/>
<path d="M20 119.793H4.76837e-07" stroke="#A2A2A2" stroke-miterlimit="10"/>
<path d="M20 139.649H4.76837e-07" stroke="#A2A2A2" stroke-miterlimit="10"/>
<path d="M20 159.505H4.76837e-07" stroke="#A2A2A2" stroke-miterlimit="10"/>
<path d="M20 179.362H4.76837e-07" stroke="#A2A2A2" stroke-miterlimit="10"/>
<path d="M30 199.218H7.15256e-07" stroke="#A2A2A2" stroke-miterlimit="10"/>
<path d="M20 219.075H4.76837e-07" stroke="#A2A2A2" stroke-miterlimit="10"/>
<path d="M20 238.931H4.76837e-07" stroke="#A2A2A2" stroke-miterlimit="10"/>
<path d="M20 258.787H4.76837e-07" stroke="#A2A2A2" stroke-miterlimit="10"/>
<path d="M20 278.644H4.76837e-07" stroke="#A2A2A2" stroke-miterlimit="10"/>
<path d="M30 298.5H7.15256e-07" stroke="#A2A2A2" stroke-miterlimit="10"/>
<path d="M20 318.356H4.76837e-07" stroke="#A2A2A2" stroke-miterlimit="10"/>
<path d="M20 338.213H4.76837e-07" stroke="#A2A2A2" stroke-miterlimit="10"/>
<path d="M20 358.069H4.76837e-07" stroke="#A2A2A2" stroke-miterlimit="10"/>
<path d="M20 377.925H4.76837e-07" stroke="#A2A2A2" stroke-miterlimit="10"/>
<path d="M30 397.782H7.15256e-07" stroke="#A2A2A2" stroke-miterlimit="10"/>
<path d="M20 417.638H4.76837e-07" stroke="#A2A2A2" stroke-miterlimit="10"/>
<path d="M20 437.495H4.76837e-07" stroke="#A2A2A2" stroke-miterlimit="10"/>
<path d="M20 457.351H4.76837e-07" stroke="#A2A2A2" stroke-miterlimit="10"/>
<path d="M20 477.207H4.76837e-07" stroke="#A2A2A2" stroke-miterlimit="10"/>
<path d="M30 497.063H7.15256e-07" stroke="#A2A2A2" stroke-miterlimit="10"/>
<path d="M20 516.92H4.76837e-07" stroke="#A2A2A2" stroke-miterlimit="10"/>
<path d="M20 536.776H4.76837e-07" stroke="#A2A2A2" stroke-miterlimit="10"/>
<path d="M20 556.633H4.76837e-07" stroke="#A2A2A2" stroke-miterlimit="10"/>
<path d="M20 576.489H4.76837e-07" stroke="#A2A2A2" stroke-miterlimit="10"/>
<path d="M30 596.345H7.15256e-07" stroke="#A2A2A2" stroke-miterlimit="10"/>
</svg>
