<?xml version="1.0" encoding="UTF-8"?>
<svg id="_レイヤー_2" data-name="レイヤー_2" xmlns="http://www.w3.org/2000/svg" viewBox="0 0 144 36">
  <g id="_レイヤー_1-2" data-name="レイヤー_1">
    <g>
      <polygon points="63 0 33 36 42 36 72 0 63 0"/>
      <polygon points="42 0 12 36 21 36 51 0 42 0"/>
      <polygon points="21 0 0 25.2 0 36 30 0 21 0"/>
      <polygon points="9 0 0 0 0 10.8 9 0"/>
      <polygon points="144 3.6 117 36 126 36 144 14.4 144 3.6"/>
      <polygon points="126 0 96 36 105 36 135 0 126 0"/>
      <polygon points="84 0 54 36 63 36 93 0 84 0"/>
      <polygon points="138 36 144 36 144 28.8 138 36"/>
      <polygon points="105 0 75 36 84 36 114 0 105 0"/>
    </g>
  </g>
</svg>