<?xml version="1.0" encoding="UTF-8"?>
<svg id="_レイヤー_2" data-name="レイヤー_2" xmlns="http://www.w3.org/2000/svg" viewBox="0 0 800 800">
  <g id="_x32_">
    <path d="M775,459.35c14.11-1.1,25-12.89,25-27.03v-64.65c0-14.16-10.89-25.93-25-27.05l-85.67-6.69c-5.44-.42-10.13-3.83-12.23-8.89l-28.17-67.99c-2.1-5.03-1.22-10.79,2.34-14.92l55.86-65.33c9.18-10.77,8.59-26.78-1.44-36.79l-45.7-45.7c-10.01-10.01-26.05-10.65-36.79-1.44l-65.33,55.86c-4.13,3.54-9.91,4.44-14.92,2.37l-68.02-28.2c-5.03-2.08-8.47-6.84-8.91-12.23l-6.67-85.65c-1.1-14.13-12.87-25.02-27.03-25.02h-64.65c-14.16,0-25.93,10.89-27.03,25.03l-6.69,85.65c-.42,5.42-3.86,10.16-8.89,12.23l-68.02,28.2c-5.03,2.08-10.79,1.17-14.94-2.37l-65.31-55.86c-10.74-9.2-26.76-8.57-36.79,1.44l-45.7,45.7c-10.01,10.01-10.62,26.02-1.44,36.79l55.86,65.33c3.52,4.13,4.44,9.89,2.34,14.92l-28.17,67.99c-2.05,5.05-6.81,8.47-12.21,8.89l-85.69,6.69c-14.11,1.12-25,12.89-25,27.05v64.62c0,14.16,10.89,25.95,25,27.05l85.69,6.67c5.4.44,10.16,3.88,12.21,8.91l28.17,67.99c2.1,5.03,1.17,10.82-2.34,14.94l-55.86,65.33c-9.18,10.74-8.57,26.76,1.44,36.79l45.7,45.7c10.03,10.01,26.05,10.62,36.79,1.42l65.31-55.86c4.15-3.52,9.91-4.44,14.94-2.34l68.02,28.17c5.03,2.1,8.47,6.81,8.89,12.26l6.69,85.65c1.1,14.11,12.87,25.02,27.03,25.02h64.65c14.16,0,25.93-10.91,27.03-25.02l6.67-85.65c.44-5.44,3.88-10.16,8.91-12.26l68.02-28.17c5-2.1,10.82-1.17,14.92,2.34l65.33,55.86c10.74,9.2,26.78,8.59,36.79-1.42l45.7-45.7c10.03-10.03,10.62-26.05,1.44-36.79l-55.86-65.33c-3.52-4.13-4.44-9.91-2.34-14.94l28.17-67.99c2.1-5.03,6.79-8.47,12.23-8.91l85.67-6.67ZM400,535.18c-36.11,0-70.07-14.06-95.61-39.58-25.54-25.56-39.6-59.5-39.6-95.63s14.06-70.07,39.6-95.58c25.54-25.56,59.5-39.6,95.61-39.6s70.07,14.04,95.61,39.6c25.54,25.51,39.6,59.47,39.6,95.58s-14.06,70.07-39.6,95.63c-25.54,25.51-59.47,39.58-95.61,39.58Z"/>
  </g>
</svg>