<?xml version="1.0" encoding="UTF-8"?>
<svg id="_レイヤー_2" data-name="レイヤー_2" xmlns="http://www.w3.org/2000/svg" viewBox="0 0 80.75 80.75">
  <defs>
    <style>
      .cls-1 {
        fill: none;
        stroke: #000;
        stroke-miterlimit: 10;
        stroke-width: .75px;
      }
    </style>
  </defs>
  <g id="_レイヤー_1-2" data-name="レイヤー_1">
    <g id="globe">
      <path id="globe_x5F__x5F_path" class="cls-1" d="M7.29,17.91c4.13-1.06,8.23-1.91,12.3-2.57,3.61-.59,7.2-1.03,10.77-1.31,3.35-.27,6.68-.4,10.02-.4s6.67.13,10.02.4c3.57.28,7.16.72,10.77,1.31,4.07.66,8.17,1.51,12.3,2.57"/>
      <path id="globe_x5F__x5F_path-2" data-name="globe_x5F__x5F_path" class="cls-1" d="M.98,33.48c4.44-.44,8.86-.8,13.26-1.08,4.38-.28,8.76-.5,13.12-.63,4.34-.15,8.68-.22,13.02-.22s8.68.07,13.02.22c4.36.13,8.74.35,13.12.63,4.4.28,8.82.64,13.26,1.08"/>
      <path id="globe_x5F__x5F_path-3" data-name="globe_x5F__x5F_path" class="cls-1" d="M.98,47.28c4.44.44,8.86.8,13.26,1.08,4.38.28,8.76.5,13.12.63,4.34.15,8.68.22,13.02.22s8.68-.07,13.02-.22c4.36-.13,8.74-.35,13.12-.63,4.4-.28,8.82-.64,13.26-1.08"/>
      <path id="globe_x5F__x5F_path-4" data-name="globe_x5F__x5F_path" class="cls-1" d="M7.29,62.85c4.14,1.06,8.23,1.92,12.3,2.57,3.61.59,7.2,1.03,10.77,1.31,3.35.27,6.68.4,10.02.4s6.68-.13,10.02-.4c3.58-.28,7.16-.71,10.77-1.31,4.07-.65,8.16-1.51,12.3-2.56"/>
      <path id="globe_x5F__x5F_path-5" data-name="globe_x5F__x5F_path" class="cls-1" d="M40.38,80.38C18.28,80.38.38,62.47.38,40.38S18.28.38,40.38.38"/>
      <path id="globe_x5F__x5F_path-6" data-name="globe_x5F__x5F_path" class="cls-1" d="M40.38,80.38c-14.73,0-26.67-17.91-26.67-40S25.65.38,40.38.38"/>
      <path id="globe_x5F__x5F_path-7" data-name="globe_x5F__x5F_path" class="cls-1" d="M40.38,80.38c-7.36,0-13.33-17.91-13.33-40S33.01.38,40.38.38"/>
      <path id="globe_x5F__x5F_path-8" data-name="globe_x5F__x5F_path" class="cls-1" d="M40.38,80.38s0-17.91,0-40V.38"/>
      <path id="globe_x5F__x5F_path-9" data-name="globe_x5F__x5F_path" class="cls-1" d="M40.38,80.38c7.36,0,13.33-17.91,13.33-40S47.74.38,40.38.38"/>
      <path id="globe_x5F__x5F_path-10" data-name="globe_x5F__x5F_path" class="cls-1" d="M40.38,80.38c14.73,0,26.67-17.91,26.67-40,0-22.09-11.94-40-26.67-40"/>
      <path id="globe_x5F__x5F_path-11" data-name="globe_x5F__x5F_path" class="cls-1" d="M40.38,80.38c22.09,0,40-17.91,40-40,0-22.09-17.91-40-40-40"/>
    </g>
  </g>
</svg>