<?xml version="1.0" encoding="UTF-8"?>
<svg id="_レイヤー_2" data-name="レイヤー_2" xmlns="http://www.w3.org/2000/svg" viewBox="0 0 171.5 174.38">
  <defs>
    <style>
      .cls-1 {
        fill: none;
        stroke: #000;
        stroke-miterlimit: 10;
        stroke-width: 1.5px;
      }
    </style>
  </defs>
  <g id="_レイヤー_1-2" data-name="レイヤー_1">
    <polygon class="cls-1" points="32.44 .75 .75 35.33 .75 139.06 35.33 173.63 139.06 173.63 170.75 139.06 170.75 35.33 136.17 .75 32.44 .75"/>
    <polygon points="30.75 116.96 50.75 130.3 124.08 130.3 140.75 116.96 140.75 43.63 127.42 30.3 107.42 30.3 100.75 36.96 100.75 50.3 107.42 56.96 124.08 56.96 124.08 83.63 117.42 86.96 94.08 60.3 54.08 60.3 30.75 86.96 30.75 116.96"/>
    <polyline points="54.08 26.96 60.75 26.96 54.08 46.96"/>
    <polyline points="40.75 36.96 47.42 33.63 47.42 46.96"/>
    <polyline points="34.08 40.3 30.75 43.63 44.08 53.63"/>
  </g>
</svg>