<svg width="241" height="60" viewBox="0 0 241 60" fill="none" xmlns="http://www.w3.org/2000/svg">
<g clip-path="url(#clip0_124_11097)">
<path d="M105.618 0.0447998L55.6177 59.8729H70.6177L120.618 0.0447998L105.618 0.0447998Z" fill="#a1a1a1"/>
<path d="M70.6177 0.0447998L20.6177 59.8729H35.6177L85.6177 0.0447998L70.6177 0.0447998Z" fill="#a1a1a1"/>
<path d="M35.6177 0.0447998L0.617676 41.9245L0.617676 59.8729L50.6177 0.0447998L35.6177 0.0447998Z" fill="#a1a1a1"/>
<path d="M15.6177 0.0447998L0.617676 0.0447998L0.617676 17.9932L15.6177 0.0447998Z" fill="#a1a1a1"/>
<path d="M240.618 6.02759L195.618 59.8729H210.618L240.618 23.976V6.02759Z" fill="#a1a1a1"/>
<path d="M210.618 0.0447998L160.618 59.8729H175.618L225.618 0.0447998L210.618 0.0447998Z" fill="#a1a1a1"/>
<path d="M140.618 0.0447998L90.6177 59.8729H105.618L155.618 0.0447998L140.618 0.0447998Z" fill="#a1a1a1"/>
<path d="M230.618 59.8728H240.618V47.9072L230.618 59.8728Z" fill="#a1a1a1"/>
<path d="M175.618 0.0447998L125.618 59.8729H140.618L190.618 0.0447998L175.618 0.0447998Z" fill="#a1a1a1"/>
</g>
<defs>
<clipPath id="clip0_124_11097">
<rect width="240" height="59.8281" fill="white" transform="translate(0.617676 0.0447998)"/>
</clipPath>
</defs>
</svg>
